# xmcd
# 
# Track frame offsets:
#     150
#     17007
#     37102
#     57707
#     77557
#     96655
#     117115
#     137375
#     156350
#     175745
# 
# Disc length: 2678
# 
# Revision: 16
# Processed by: cddbd v1.5.2PL0 Copyright (c) Steve Scherf et al.
# Submitted via: fre:ac v1.0.27
# 
DISCID=820a740a
DTITLE=浜田省吾 - 愛の世代の前に I was born in 1952 CSCL-1167
DYEAR=1981
DGENRE=ポップ
TTITLE0=愛の世代の前に (Before The Love Generation)
TTITLE1=モダンガール (Modern Girl)
TTITLE2=愛という名のもとに (In The Name Of Love)
TTITLE3=独立記念日 (Independence Day)
TTITLE4=陽のあたる場所 (A Place In The Sun)
TTITLE5=土曜の夜と日曜の朝 (Saturday Night And Sunday Morning)
TTITLE6=ラストショー (Last Show)
TTITLE7=センチメンタルクリスマス (Sentimental Chiristmas)
TTITLE8=悲しみは雪のように (Sorrow Falling Down Like Snowflakes)
TTITLE9=防波堤の上 (On The Breakwater)
EXTD=YEAR: 0
EXTT0=
EXTT1=
EXTT2=
EXTT3=
EXTT4=
EXTT5=
EXTT6=
EXTT7=
EXTT8=
EXTT9=
PLAYORDER=
